<?xml version="1.0" encoding="UTF-8"?>
<svg xmlns="http://www.w3.org/2000/svg" version="2.0">
<polyline points=
	"136.94400000000002,112.0
	139.77,112.0
	141.74,111.0
	143.65,112.0
	145.53,112.0
	147.29,112.0
	149.11,112.0
	150.54,111.0
	154.64,112.0
	156.52,113.0
	158.51,113.0
	160.49,113.0
	163.27,113.0
	168.05,114.0
	169.99,115.0
	184.33,118.0
	189.41,119.0
	195.01,120.0
	200.13,122.0
	205.34,122.0
	210.57,123.0
	215.6,124.0
	220.37,125.0
	224.74,125.0
	230.01,126.0
	235.03,126.0
	240.22,126.0
	245.34,127.0
	250.21,127.0
	254.97,127.0
	265.01,128.0
	310.31,131.0
	313.19,131.0
	314.55,131.0
	315.85,131.0
	317.14,131.0
	318.41,132.0
	319.61,132.0
	320.86,132.0
	322.17,132.0
	323.43,132.0
	324.77,132.0
	327.4,132.0
	328.69,132.0
	330.12,132.0
	331.53,133.0
	333.16,133.0
	336.47,133.0
	337.95,133.0
	341.05,133.0
	344.12,133.0
	345.54,133.0
	348.55,133.0
	350.09,133.0
	353.06,133.0
	356.01,133.0
	392.41,129.0
	393.6,128.0
	394.83,128.0
	396.03,128.0
	397.21,128.0
	398.47,127.0
	399.73,127.0
	401.02,127.0
	402.32,126.0
	403.41,126.0
	404.51,126.0
	405.64,126.0
	406.78,125.0
	407.88,125.0
	408.92,125.0
	410.72,124.0
	439.46,116.0
	450.31,115.0
	460.83,114.0
	480.64,115.0
	483.74,116.0
	486.8,116.0
	492.55,115.0
	496.33,119.0
	502.34,120.0
	507.91,122.0
	540.18,132.0
	544.23,133.0
	548.05,134.0
	551.94,134.0
	553.94,135.0
	555.77,135.0
	557.8,135.0
	561.45,136.0
	563.32,136.0
	569.78,136.0
	629.33,133.0
	665.55,131.0
	668.46,131.0
	671.63,131.0
	674.42,131.0
	677.09,131.0
	680.34,131.0
	683.37,132.0
	686.37,132.0
	689.22,132.0
	694.22,133.0
	699.27,133.0
	704.27,134.0
	709.21,136.0
	716.18,136.0
	718.0,137.0
	719.83,138.0
	721.65,138.0
	723.61,138.0
	725.62,139.0
	729.43,139.0
	731.42,140.0
	733.96,140.0
	736.34,140.0
	738.63,141.0
	740.88,141.0
	743.0,141.0
	745.18,141.0
	747.18,141.0
	749.06,142.0
	783.6,140.0
	787.55,137.0
	789.6,137.0
	791.6,136.0
	793.75,136.0
	795.98,135.0
	800.15,134.0
	834.23,126.0
	837.24,125.0
	840.39,125.0
	843.41,124.0
	846.54,124.0
	849.32,124.0
	852.06,123.0
	855.01,123.0
	857.79,122.0
	901.9,120.0
	1038.84,112.0"
	style="fill:white;stroke:red;stroke-width:4" />
</svg>
