<?xml version="1.0" encoding="UTF-8"?>
<svg xmlns="http://www.w3.org/2000/svg" version="2.0">
<polyline points=
	"125.47,800.0
	133.89,800.0
	141.87,820.0
	149.82,800.0
	157.76,800.0
	165.64,800.0
	173.55,800.0
	181.26,820.0
	190.31,800.0
	198.25,780.0
	206.24,780.0
	214.23,780.0
	222.62,780.0
	232.01,760.0
	239.98,740.0
	254.15,680.0
	263.69,660.0
	273.49,640.0
	283.05,600.0
	292.66,600.0
	302.28,580.0
	311.79,560.0
	321.18,540.0
	330.37,540.0
	340.01,520.0
	349.52,520.0
	359.12,520.0
	368.68,500.0
	378.11,500.0
	387.49,500.0
	399.51,480.0
	429.16,420.0
	437.6,420.0
	445.28,420.0
	452.93,420.0
	460.57,420.0
	468.21,400.0
	475.81,400.0
	483.43,400.0
	491.09,400.0
	498.72,400.0
	506.39,400.0
	514.7,400.0
	522.35,400.0
	530.07,400.0
	537.77,380.0
	545.59,380.0
	554.25,380.0
	561.99,380.0
	570.54,380.0
	579.08,380.0
	586.79,380.0
	595.3,380.0
	603.07,380.0
	611.56,380.0
	620.04,380.0
	645.24,460.0
	652.84,480.0
	660.46,480.0
	668.06,480.0
	675.65,480.0
	683.28,500.0
	690.91,500.0
	698.56,500.0
	706.21,520.0
	713.76,520.0
	721.31,520.0
	728.88,520.0
	736.45,540.0
	744.0,540.0
	751.52,540.0
	759.42,560.0
	780.79,720.0
	793.22,740.0
	805.48,760.0
	822.38,740.0
	830.93,720.0
	839.46,720.0
	849.34,740.0
	858.23,660.0
	868.24,640.0
	878.03,600.0
	901.16,400.0
	910.19,380.0
	919.1,360.0
	928.05,360.0
	936.05,340.0
	943.97,340.0
	951.99,340.0
	960.82,320.0
	968.75,320.0
	978.98,320.0
	1015.75,380.0
	1040.86,420.0
	1049.31,420.0
	1057.9,420.0
	1066.3,420.0
	1074.64,420.0
	1083.26,420.0
	1091.78,400.0
	1100.28,400.0
	1108.71,400.0
	1118.21,380.0
	1127.73,380.0
	1137.23,360.0
	1146.7,320.0
	1157.18,320.0
	1165.09,300.0
	1173.01,280.0
	1180.92,280.0
	1188.9,280.0
	1196.9,260.0
	1205.8,260.0
	1213.79,240.0
	1222.06,240.0
	1230.25,240.0
	1238.4,220.0
	1246.53,220.0
	1254.59,220.0
	1262.68,220.0
	1270.68,220.0
	1278.62,200.0
	1302.89,240.0
	1311.86,300.0
	1319.89,300.0
	1327.89,320.0
	1335.96,320.0
	1344.08,340.0
	1353.16,360.0
	1377.2,520.0
	1385.7,540.0
	1394.27,540.0
	1402.78,560.0
	1411.34,560.0
	1419.73,560.0
	1428.1,580.0
	1436.58,580.0
	1444.97,600.0
	1474.02,640.0
	1549.49,800.0"
	style="fill:white;stroke:red;stroke-width:4" />
</svg>
