<?xml version="1.0" standalone="no"?>
<!DOCTYPE svg PUBLIC "-//W3C//DTD SVG 20010904//EN"
 "http://www.w3.org/TR/2001/REC-SVG-20010904/DTD/svg10.dtd">
<svg version="1.0" xmlns="http://www.w3.org/2000/svg"
 width="1000.000000pt" height="562.000000pt" viewBox="0 0 1000.000000 562.000000"
 preserveAspectRatio="xMidYMid meet">

<g transform="translate(0.000000,562.000000) scale(0.100000,-0.100000)"
fill="#000000" stroke="none">
<path d="M1391 4261 c-41 -5 -59 -13 -77 -35 -59 -68 -430 -713 -624 -1085
-109 -208 -144 -284 -147 -320 -4 -42 3 -61 76 -209 195 -393 647 -1179 711
-1237 21 -19 38 -20 382 -20 l360 0 27 32 c71 86 457 757 639 1113 118 230
136 270 135 310 -1 50 -73 202 -258 545 -124 229 -407 713 -495 846 -43 64
-35 63 -370 65 -168 1 -329 -1 -359 -5z m558 -233 c-87 -174 -191 -409 -191
-433 0 -11 28 -72 63 -135 119 -219 310 -619 311 -651 2 -46 -290 -626 -564
-1124 -96 -174 -140 -237 -154 -222 -4 4 31 87 78 184 77 158 168 364 168 377
0 2 -44 89 -97 193 -165 319 -283 567 -283 596 0 28 300 630 474 952 153 282
217 385 238 385 15 0 8 -19 -43 -122z"/>
<path d="M3415 3873 c5 -15 10 -142 12 -280 l4 -253 74 0 75 0 0 90 0 90 89 0
90 0 47 -90 48 -90 79 0 c92 0 91 -9 17 116 -27 46 -50 87 -50 90 0 3 13 16
29 30 42 35 61 83 61 152 0 69 -24 114 -80 146 -32 19 -54 21 -269 24 l-234 3
8 -28z m405 -101 c17 -14 22 -28 22 -61 -1 -73 -16 -81 -149 -81 l-113 0 0 80
0 80 109 0 c90 0 113 -3 131 -18z"/>
<path d="M4150 3620 l0 -280 245 0 245 0 0 55 0 55 -170 0 -170 0 0 60 0 60
150 0 150 0 0 55 0 55 -150 0 -150 0 0 60 0 60 165 0 165 0 0 50 0 50 -240 0
-240 0 0 -280z"/>
<path d="M4775 3868 c5 -18 10 -144 12 -280 l4 -248 64 0 65 0 2 180 3 181 64
-73 c35 -40 109 -122 164 -181 l100 -108 61 3 61 3 3 278 2 277 -70 0 -70 0 0
-181 0 -181 -36 44 c-20 23 -93 105 -162 181 l-125 137 -75 0 -74 0 7 -32z"/>
<path d="M5710 3873 c-87 -186 -220 -500 -220 -522 0 -8 21 -11 71 -9 l71 3
18 45 18 45 148 0 148 0 17 -45 17 -45 76 -3 76 -3 -21 53 c-33 87 -145 347
-184 431 l-36 77 -93 0 c-91 0 -93 0 -106 -27z m162 -208 c55 -131 63 -115
-56 -115 l-104 0 51 121 51 121 14 -28 c8 -16 28 -60 44 -99z"/>
<path d="M6215 3868 c4 -18 10 -114 14 -213 5 -165 8 -183 29 -218 51 -81 190
-122 339 -99 96 15 150 46 183 104 24 41 25 51 28 251 l3 207 -75 0 -76 0 0
-195 c0 -193 0 -196 -24 -220 -43 -43 -177 -46 -230 -4 l-26 20 0 200 0 199
-86 0 -86 0 7 -32z"/>
<path d="M6970 3620 l0 -280 230 0 230 0 0 55 0 55 -155 0 -155 0 -2 223 -3
222 -72 3 -73 3 0 -281z"/>
<path d="M7365 3890 c-3 -5 -5 -28 -3 -50 l2 -40 108 0 108 0 0 -230 0 -230
75 0 75 0 0 231 0 230 105 -3 105 -3 0 53 0 52 -284 0 c-174 0 -287 -4 -291
-10z"/>
<path d="M6650 3176 c-271 -58 -415 -353 -294 -600 38 -77 134 -167 211 -196
72 -28 195 -37 272 -20 264 58 406 349 290 596 -53 112 -177 203 -304 224 -74
12 -105 12 -175 -4z m172 -168 c52 -15 121 -78 148 -133 33 -68 26 -174 -15
-241 -87 -140 -273 -162 -385 -46 -51 53 -70 103 -70 183 2 177 153 288 322
237z"/>
<path d="M3432 2773 l3 -408 130 -3 c186 -4 284 10 370 52 139 69 225 191 233
335 7 127 -30 224 -119 309 -99 96 -192 122 -442 122 l-177 0 2 -407z m424
225 c84 -45 133 -129 134 -226 0 -73 -15 -114 -61 -167 -54 -61 -117 -85 -226
-85 l-93 0 0 248 c0 137 2 251 4 253 11 11 214 -8 242 -23z"/>
<path d="M4250 2771 l0 -411 93 0 92 0 -2 115 c-1 64 0 122 3 129 4 11 38 15
142 18 128 3 140 5 184 30 109 65 143 125 143 253 0 80 -3 94 -26 130 -36 55
-86 100 -134 121 -34 15 -76 19 -267 22 l-228 4 0 -411z m415 233 c45 -21 68
-59 68 -110 0 -92 -54 -128 -193 -129 -52 0 -96 3 -97 8 -2 4 -3 61 -3 127 l0
120 96 0 c67 0 106 -5 129 -16z"/>
<path d="M5190 3171 c0 -5 61 -188 135 -407 74 -219 135 -400 135 -402 0 -1
41 -1 92 0 l92 3 51 172 c27 95 52 173 55 173 3 0 30 -78 61 -172 l54 -173 92
-3 91 -3 132 398 c73 219 135 403 137 410 4 10 -17 13 -89 13 l-94 0 -32 -102
c-109 -346 -141 -441 -146 -428 -6 15 -58 181 -130 413 l-37 117 -91 0 c-71 0
-89 -3 -85 -13 33 -87 58 -187 53 -217 -3 -19 -28 -102 -54 -185 l-49 -150
-67 210 c-37 116 -77 242 -90 280 l-23 70 -96 3 c-56 2 -97 -1 -97 -7z"/>
<path d="M7270 2770 l0 -411 88 3 87 3 3 138 3 137 62 0 62 0 75 -116 c117
-181 96 -164 211 -164 54 0 99 2 99 5 0 3 -45 73 -100 155 l-100 149 42 23
c158 87 168 329 17 434 -65 45 -123 54 -346 54 l-203 0 0 -410z m434 221 c15
-14 31 -42 37 -62 10 -31 9 -43 -7 -76 -28 -57 -69 -73 -186 -73 l-98 0 0 121
0 121 114 -4 c105 -3 117 -5 140 -27z"/>
<path d="M8060 2770 l0 -410 290 0 290 0 0 80 0 80 -200 0 -200 0 0 330 0 330
-90 0 -90 0 0 -410z"/>
<path d="M8720 2770 l0 -410 148 0 c81 0 179 5 217 10 145 21 276 114 338 239
30 61 32 73 32 166 0 89 -4 107 -29 162 -35 76 -123 164 -198 197 -85 37 -148
46 -333 46 l-175 0 0 -410z m394 238 c55 -16 140 -101 155 -154 34 -123 -17
-251 -123 -306 -32 -17 -64 -23 -143 -26 l-103 -4 0 251 0 251 86 0 c48 0 105
-5 128 -12z"/>
<path d="M3400 2176 c0 -13 7 -26 15 -30 12 -4 15 -41 17 -218 l3 -213 45 0
45 0 3 93 3 92 99 0 100 0 0 40 0 40 -100 0 -100 0 0 74 0 74 123 -1 122 -2 3
38 3 37 -190 0 -191 0 0 -24z"/>
<path d="M4190 2170 c-63 -28 -65 -30 -68 -69 l-3 -40 57 25 c31 14 58 23 60
22 1 -2 4 -91 6 -198 l3 -195 45 0 45 0 3 243 2 242 -42 0 c-25 0 -70 -13
-108 -30z"/>
<path d="M4416 2184 c-9 -9 -16 -32 -16 -54 0 -51 32 -76 85 -66 85 16 68 136
-19 136 -19 0 -42 -7 -50 -16z m96 -18 c12 -17 9 -61 -4 -74 -20 -20 -76 -15
-88 9 -16 28 -4 68 22 78 25 9 60 3 70 -13z"/>
<path d="M4437 2164 c-11 -11 -8 -62 3 -69 6 -3 10 1 10 9 0 20 16 21 24 1 10
-28 23 -15 22 23 -1 32 -4 37 -26 40 -14 2 -29 0 -33 -4z m40 -20 c-3 -3 -12
-4 -19 -1 -8 3 -5 6 6 6 11 1 17 -2 13 -5z"/>
<path d="M5212 2163 l3 -38 78 -3 77 -3 0 -205 0 -205 48 3 47 3 2 200 c2 110
3 202 3 205 0 3 33 5 72 5 l73 0 3 38 3 37 -206 0 -206 0 3 -37z"/>
<path d="M5940 2176 c0 -13 7 -26 15 -30 12 -4 15 -41 17 -218 l3 -213 175 0
175 0 3 38 3 37 -130 0 -131 0 0 70 0 70 100 0 100 0 0 35 0 35 -100 0 -100 0
0 60 0 60 125 0 125 0 0 40 0 40 -190 0 -190 0 0 -24z"/>
<path d="M6781 2108 c-48 -104 -142 -378 -135 -390 8 -13 81 -9 92 5 6 7 16
34 23 60 l12 48 105 -3 106 -3 17 -55 c16 -53 18 -55 54 -58 65 -6 67 -2 39
88 -31 101 -85 243 -126 333 l-31 67 -57 0 -57 0 -42 -92z m112 -25 c3 -10 19
-54 36 -98 17 -44 31 -81 31 -82 0 -2 -36 -3 -81 -3 -93 0 -89 -13 -37 123 30
78 41 91 51 60z"/>
<path d="M7437 2194 c-14 -14 -7 -42 13 -47 19 -5 20 -14 20 -222 l0 -216 43
3 42 3 3 165 3 165 54 -89 c65 -107 66 -108 103 -112 29 -3 34 2 94 99 l63
102 3 -168 2 -168 43 3 42 3 3 243 2 242 -49 0 -48 0 -72 -120 c-39 -65 -75
-122 -80 -125 -5 -3 -43 50 -83 117 l-74 123 -60 3 c-33 2 -63 0 -67 -4z"/>
</g>
</svg>
